<svg id="visual" viewBox="0 0 900 600" width="900" height="600" xmlns="http://www.w3.org/2000/svg" xmlns:xlink="http://www.w3.org/1999/xlink" version="1.1"><g stroke-width="1" stroke-linejoin="bevel"><path d="M476 301L432 319L537 360Z" fill="#f9f9f9" stroke="#f9f9f9"></path><path d="M432 319L394 421L537 360Z" fill="#fefefe" stroke="#fefefe"></path><path d="M534 496L600 398L537 360Z" fill="#f9f9f9" stroke="#f9f9f9"></path><path d="M537 360L530 226L476 301Z" fill="#fbfbfb" stroke="#fbfbfb"></path><path d="M394 421L429 485L537 360Z" fill="#fbfbfb" stroke="#fbfbfb"></path><path d="M429 485L534 496L537 360Z" fill="#f9f9f9" stroke="#f9f9f9"></path><path d="M637 301L530 226L537 360Z" fill="#f9f9f9" stroke="#f9f9f9"></path><path d="M476 301L379 191L432 319Z" fill="#f1f1f1" stroke="#f1f1f1"></path><path d="M432 319L320 404L394 421Z" fill="#f1f1f1" stroke="#f1f1f1"></path><path d="M394 421L311 460L429 485Z" fill="#f9f9f9" stroke="#f9f9f9"></path><path d="M306 279L320 404L432 319Z" fill="#ffffff" stroke="#ffffff"></path><path d="M600 398L637 301L537 360Z" fill="#f8f8f8" stroke="#f8f8f8"></path><path d="M318 228L306 279L432 319Z" fill="#fcfcfc" stroke="#fcfcfc"></path><path d="M228 464L311 460L320 404Z" fill="#f8f8f8" stroke="#f8f8f8"></path><path d="M320 404L311 460L394 421Z" fill="#f1f1f1" stroke="#f1f1f1"></path><path d="M530 226L379 191L476 301Z" fill="#f2f2f2" stroke="#f2f2f2"></path><path d="M677 433L673 332L600 398Z" fill="#f7f7f7" stroke="#f7f7f7"></path><path d="M600 398L673 332L637 301Z" fill="#f5f5f5" stroke="#f5f5f5"></path><path d="M508 600L582 532L534 496Z" fill="#f2f2f2" stroke="#f2f2f2"></path><path d="M534 496L582 532L600 398Z" fill="#fefefe" stroke="#fefefe"></path><path d="M508 600L534 496L429 485Z" fill="#f1f1f1" stroke="#f1f1f1"></path><path d="M379 191L318 228L432 319Z" fill="#f9f9f9" stroke="#f9f9f9"></path><path d="M582 532L677 433L600 398Z" fill="#ffffff" stroke="#ffffff"></path><path d="M594 121L585 172L711 183Z" fill="#f9f9f9" stroke="#f9f9f9"></path><path d="M637 301L585 172L530 226Z" fill="#f1f1f1" stroke="#f1f1f1"></path><path d="M530 226L430 127L379 191Z" fill="#f5f5f5" stroke="#f5f5f5"></path><path d="M392 600L508 600L429 485Z" fill="#f7f7f7" stroke="#f7f7f7"></path><path d="M585 172L430 127L530 226Z" fill="#f9f9f9" stroke="#f9f9f9"></path><path d="M379 191L334 122L318 228Z" fill="#f2f2f2" stroke="#f2f2f2"></path><path d="M311 460L392 600L429 485Z" fill="#f2f2f2" stroke="#f2f2f2"></path><path d="M189 429L228 464L320 404Z" fill="#f4f4f4" stroke="#f4f4f4"></path><path d="M311 460L308 600L392 600Z" fill="#f1f1f1" stroke="#f1f1f1"></path><path d="M216 285L320 404L306 279Z" fill="#f7f7f7" stroke="#f7f7f7"></path><path d="M711 183L585 172L637 301Z" fill="#f2f2f2" stroke="#f2f2f2"></path><path d="M585 172L474 74L430 127Z" fill="#f9f9f9" stroke="#f9f9f9"></path><path d="M164 181L216 285L318 228Z" fill="#fcfcfc" stroke="#fcfcfc"></path><path d="M318 228L216 285L306 279Z" fill="#f1f1f1" stroke="#f1f1f1"></path><path d="M628 600L727 469L582 532Z" fill="#fefefe" stroke="#fefefe"></path><path d="M582 532L727 469L677 433Z" fill="#ffffff" stroke="#ffffff"></path><path d="M677 433L777 378L673 332Z" fill="#ffffff" stroke="#ffffff"></path><path d="M673 332L711 183L637 301Z" fill="#f7f7f7" stroke="#f7f7f7"></path><path d="M398 0L334 122L430 127Z" fill="#f7f7f7" stroke="#f7f7f7"></path><path d="M430 127L334 122L379 191Z" fill="#fbfbfb" stroke="#fbfbfb"></path><path d="M508 600L628 600L582 532Z" fill="#f1f1f1" stroke="#f1f1f1"></path><path d="M594 121L474 74L585 172Z" fill="#f1f1f1" stroke="#f1f1f1"></path><path d="M228 464L308 600L311 460Z" fill="#fcfcfc" stroke="#fcfcfc"></path><path d="M216 285L189 429L320 404Z" fill="#f4f4f4" stroke="#f4f4f4"></path><path d="M228 464L206 600L308 600Z" fill="#f1f1f1" stroke="#f1f1f1"></path><path d="M776 309L711 183L673 332Z" fill="#fcfcfc" stroke="#fcfcfc"></path><path d="M727 469L777 378L677 433Z" fill="#f9f9f9" stroke="#f9f9f9"></path><path d="M777 378L776 309L673 332Z" fill="#f1f1f1" stroke="#f1f1f1"></path><path d="M809 600L775 461L727 469Z" fill="#ffffff" stroke="#ffffff"></path><path d="M727 469L775 461L777 378Z" fill="#fcfcfc" stroke="#fcfcfc"></path><path d="M628 600L705 600L727 469Z" fill="#f9f9f9" stroke="#f9f9f9"></path><path d="M837 109L693 88L711 183Z" fill="#f4f4f4" stroke="#f4f4f4"></path><path d="M711 183L693 88L594 121Z" fill="#f7f7f7" stroke="#f7f7f7"></path><path d="M596 0L472 0L474 74Z" fill="#f7f7f7" stroke="#f7f7f7"></path><path d="M130 221L126 326L216 285Z" fill="#f2f2f2" stroke="#f2f2f2"></path><path d="M216 285L126 326L189 429Z" fill="#ffffff" stroke="#ffffff"></path><path d="M128 600L206 600L228 464Z" fill="#f2f2f2" stroke="#f2f2f2"></path><path d="M128 600L228 464L76 501Z" fill="#f9f9f9" stroke="#f9f9f9"></path><path d="M334 122L164 181L318 228Z" fill="#f4f4f4" stroke="#f4f4f4"></path><path d="M596 0L474 74L594 121Z" fill="#f2f2f2" stroke="#f2f2f2"></path><path d="M474 74L398 0L430 127Z" fill="#f1f1f1" stroke="#f1f1f1"></path><path d="M334 122L165 61L164 181Z" fill="#f7f7f7" stroke="#f7f7f7"></path><path d="M776 309L806 200L711 183Z" fill="#f5f5f5" stroke="#f5f5f5"></path><path d="M900 230L806 200L776 309Z" fill="#fefefe" stroke="#fefefe"></path><path d="M900 338L776 309L777 378Z" fill="#f1f1f1" stroke="#f1f1f1"></path><path d="M472 0L398 0L474 74Z" fill="#f5f5f5" stroke="#f5f5f5"></path><path d="M164 181L130 221L216 285Z" fill="#fcfcfc" stroke="#fcfcfc"></path><path d="M693 88L596 0L594 121Z" fill="#f7f7f7" stroke="#f7f7f7"></path><path d="M0 333L90 382L126 326Z" fill="#fcfcfc" stroke="#fcfcfc"></path><path d="M126 326L90 382L189 429Z" fill="#f4f4f4" stroke="#f4f4f4"></path><path d="M398 0L316 0L334 122Z" fill="#f8f8f8" stroke="#f8f8f8"></path><path d="M164 181L93 102L130 221Z" fill="#f7f7f7" stroke="#f7f7f7"></path><path d="M705 600L809 600L727 469Z" fill="#f2f2f2" stroke="#f2f2f2"></path><path d="M900 421L900 338L777 378Z" fill="#f8f8f8" stroke="#f8f8f8"></path><path d="M76 501L228 464L189 429Z" fill="#f2f2f2" stroke="#f2f2f2"></path><path d="M90 382L76 501L189 429Z" fill="#f7f7f7" stroke="#f7f7f7"></path><path d="M900 421L777 378L775 461Z" fill="#fcfcfc" stroke="#fcfcfc"></path><path d="M900 521L900 421L775 461Z" fill="#f1f1f1" stroke="#f1f1f1"></path><path d="M820 0L709 0L693 88Z" fill="#f5f5f5" stroke="#f5f5f5"></path><path d="M693 88L709 0L596 0Z" fill="#f9f9f9" stroke="#f9f9f9"></path><path d="M837 109L711 183L806 200Z" fill="#f1f1f1" stroke="#f1f1f1"></path><path d="M227 0L165 61L334 122Z" fill="#f2f2f2" stroke="#f2f2f2"></path><path d="M0 217L0 333L126 326Z" fill="#f8f8f8" stroke="#f8f8f8"></path><path d="M316 0L227 0L334 122Z" fill="#f1f1f1" stroke="#f1f1f1"></path><path d="M900 230L837 109L806 200Z" fill="#f2f2f2" stroke="#f2f2f2"></path><path d="M900 338L900 230L776 309Z" fill="#f2f2f2" stroke="#f2f2f2"></path><path d="M809 600L900 521L775 461Z" fill="#f5f5f5" stroke="#f5f5f5"></path><path d="M91 0L93 102L165 61Z" fill="#f1f1f1" stroke="#f1f1f1"></path><path d="M165 61L93 102L164 181Z" fill="#f9f9f9" stroke="#f9f9f9"></path><path d="M90 382L0 408L76 501Z" fill="#f4f4f4" stroke="#f4f4f4"></path><path d="M0 217L126 326L130 221Z" fill="#f9f9f9" stroke="#f9f9f9"></path><path d="M0 333L0 408L90 382Z" fill="#f5f5f5" stroke="#f5f5f5"></path><path d="M76 501L0 600L128 600Z" fill="#fefefe" stroke="#fefefe"></path><path d="M809 600L900 600L900 521Z" fill="#ffffff" stroke="#ffffff"></path><path d="M900 230L900 107L837 109Z" fill="#f5f5f5" stroke="#f5f5f5"></path><path d="M837 109L820 0L693 88Z" fill="#f7f7f7" stroke="#f7f7f7"></path><path d="M93 102L0 217L130 221Z" fill="#f9f9f9" stroke="#f9f9f9"></path><path d="M0 408L0 511L76 501Z" fill="#fcfcfc" stroke="#fcfcfc"></path><path d="M900 0L820 0L837 109Z" fill="#fbfbfb" stroke="#fbfbfb"></path><path d="M227 0L91 0L165 61Z" fill="#f7f7f7" stroke="#f7f7f7"></path><path d="M93 102L0 92L0 217Z" fill="#f8f8f8" stroke="#f8f8f8"></path><path d="M0 511L0 600L76 501Z" fill="#ffffff" stroke="#ffffff"></path><path d="M91 0L0 92L93 102Z" fill="#f4f4f4" stroke="#f4f4f4"></path><path d="M900 107L900 0L837 109Z" fill="#f7f7f7" stroke="#f7f7f7"></path><path d="M91 0L0 0L0 92Z" fill="#f7f7f7" stroke="#f7f7f7"></path></g></svg>